<svg xmlns="http://www.w3.org/2000/svg" viewBox="0 0 24 24">
    <style>
        .target { fill: #4CAF50; }
        .center { fill: #ffffff; }
    </style>
    <g class="target">
        <!-- 外圈 -->
        <path d="M12 2C6.48 2 2 6.48 2 12s4.48 10 10 10 10-4.48 10-10S17.52 2 12 2zm0 18c-4.41 0-8-3.59-8-8s3.59-8 8-8 8 3.59 8 8-3.59 8-8 8z"/>
        <!-- 十字准星 -->
        <rect x="11" y="5" width="2" height="6"/>
        <rect x="11" y="13" width="2" height="6"/>
        <rect x="5" y="11" width="6" height="2"/>
        <rect x="13" y="11" width="6" height="2"/>
    </g>
    <!-- 中心圆点 -->
    <circle class="center" cx="12" cy="12" r="2"/>
    <circle class="target" cx="12" cy="12" r="1"/>
</svg> 