<svg xmlns="http://www.w3.org/2000/svg" xmlns:xlink="http://www.w3.org/1999/xlink" width="24" height="30" viewBox="0 0 498 634">
    <defs>
        <linearGradient id="PSgrad_0" x1="64.279%" x2="0%" y1="76.604%" y2="0%">
            <stop offset="0%" stop-color="rgb(0,160,234)" stop-opacity="1" />
            <stop offset="100%" stop-color="rgb(6,182,255)" stop-opacity="1" />
        </linearGradient>
    </defs>
    <path fill-rule="evenodd" fill="url(#PSgrad_0)"
        d="M497.1000,634.000 L113.169,634.000 L0.988,532.997 L1.000,532.983 L1.000,101.1000 L1.622,101.1000 L0.769,101.053 L113.000,-0.000 L497.1000,-0.000 L497.1000,34.1000 L126.435,34.1000 L36.000,116.428 L36.000,517.446 L126.599,599.017 L497.1000,599.017 L497.1000,634.000 ZM427.062,543.548 L152.029,543.548 L152.029,543.540 L71.866,471.365 L71.875,471.355 L71.875,163.347 L72.319,163.347 L71.710,162.671 L151.917,90.452 L427.062,90.452 L427.062,115.465 L339.654,115.465 L347.273,123.084 L153.220,317.137 L347.1000,511.916 L341.359,518.557 L427.062,518.557 L427.062,543.548 ZM112.009,318.076 L112.136,317.949 L111.188,317.001 L312.724,115.465 L161.519,115.465 L96.888,173.659 L96.888,460.251 L161.647,518.557 L312.490,518.557 L112.009,318.076 Z"/>
</svg>